<?xml version="1.0" encoding="UTF-8"?>
<svg id="Layer_2" data-name="Layer 2" xmlns="http://www.w3.org/2000/svg" xmlns:xlink="http://www.w3.org/1999/xlink" viewBox="0 0 189.81 42.76">
  <defs>
    <style>
      .cls-1 {
        fill: none;
      }

      .cls-2 {
        fill: #17335c;
      }

      .cls-3 {
        fill: #15335c;
      }

      .cls-4 {
        clip-path: url(#clippath);
      }

      .cls-5 {
        fill: #fc9f32;
      }
    </style>
    <clipPath id="clippath">
      <rect class="cls-1" width="39.95" height="42.76"/>
    </clipPath>
  </defs>
  <g id="Layer_1-2" data-name="Layer 1">
    <g class="cls-4">
      <g>
        <path class="cls-2" d="M19.96.48c.33.09.9.18,1.37.33,10.82,3.24,15.32,16.89,8.28,25.84-.2.26-1.09,1.07-1.02,1.33.48.48.91,1.1,1.37,1.59,2.8,3,5.63,5.77,8.46,8.77.76.81,1.83,1.79,1.44,3-.14.43-.9,1.23-1.34,1.35-.91.26-1.58-.1-2.24-.67l-10.58-11.57c-1.03.59-2.07,1.23-3.2,1.64C9.01,37-3.7,24.59.99,11.01,3.5,3.75,12.32-1.68,19.96.48ZM7.21,26.21c9.49,9.16,25.35.34,22.26-12.65-1.65-6.93-8.79-11.56-15.84-10.02C3.32,5.81-.4,18.88,7.21,26.21Z"/>
        <path class="cls-2" d="M17.2,10.9c0,.37-.1,2.33.09,2.46.09.07.35-.11.46-.1.06,0,.04.17.13.2.15.05.33-.01.52.09.54.27.93.75,1.43,1.06.81-.47,1.62-1,2.49-1.34-.09-.87.46-2.16,1.39-2.34.19-.04.33.08.46.06.08,0,.02-.22.21-.22.18,0,1.21.31,1.38.4.17.09.65.74.74.92.8,1.74-.99,3.7-2.84,2.94-.33-.14-.45-.49-.9-.41-.13.02-2.24,1.27-2.25,1.4.29,1,.12,1.95-.16,2.93.56.19,1.37,1.03,1.9,1.12.32.05.53-.15.81-.18.99-.12,1.84.18,2.31,1.09.38.73.37,1.08.09,1.82-.81,2.15-3.71,1.73-4.11-.61-.05-.26.06-.66-.06-.87-.05-.08-1.56-.98-1.68-1.02-.39-.1-1.35.7-1.89.86-1.63.48-3.01.03-4.3-.98-.17,0-1.91,1.03-1.98,1.14-.1.16.07.45.06.67-.04.88-.78,2.01-1.71,2.13-.41.05-1.13.03-1.5-.17-1.94-1.06-1.31-4.35,1.29-4.07.32.03.62.24.92.21.15-.02,1.96-1.08,2.04-1.18.15-.19-.3-1.24-.3-1.66,0-.29.22-.93.19-1.12-.02-.14-2.2-1.25-2.46-1.5-.41-.03-.45.32-.86.45-2.57.79-3.94-2.43-2.02-3.88.6-.45.59-.16,1.02-.2.09,0-.02-.23.31-.22,1.09.04,1.82.81,2.02,1.83.04.19-.04.54.03.65.08.13,2.34,1.16,2.64,1.45.22.02.36-.39.56-.55.54-.45,1.35-.91,2.07-.88-.08-.5.18-2.1-.15-2.38-.13-.12-.42-.15-.63-.3-1.55-1.13-.95-3.91.93-4.14,3.12-.38,4.1,3.3,1.31,4.46h0ZM16.34,14.42c-2.91.15-3.74,3.99-1.23,5.3,2.12,1.11,4.41-.56,4.15-2.9-.15-1.37-1.56-2.47-2.92-2.4Z"/>
        <path class="cls-5" d="M16.34,14.42c1.36-.07,2.77,1.04,2.92,2.4.26,2.34-2.03,4.01-4.15,2.9-2.51-1.31-1.68-5.15,1.23-5.3Z"/>
      </g>
    </g>
    <path class="cls-3" d="M73.01,11.08v.7c-.51.19-1.05.6-1.61,1.23-.56.61-1.05,1.59-1.47,2.94l-6.17,20.01c-.19-.02-.39-.04-.6-.04h-1.26c-.21,0-.41.01-.6.04l-7.36-22.29c-.23-.72-.53-1.21-.88-1.47-.33-.26-.68-.4-1.05-.42v-.7c.65.02,1.43.05,2.31.07.91.02,1.81.04,2.7.04,1.03,0,1.99-.01,2.87-.04.91-.02,1.64-.05,2.17-.07v.7c-.7.02-1.26.11-1.68.25-.4.14-.63.41-.7.81-.05.4.07,1.03.35,1.89l4.98,15.21-.81,1.44,3.96-12.58c.56-1.78.83-3.17.81-4.17-.02-1-.29-1.72-.81-2.14-.51-.44-1.25-.68-2.21-.7v-.7c.79.02,1.54.05,2.24.07.7.02,1.4.04,2.1.04.54,0,1.03-.01,1.47-.04.47-.02.88-.05,1.23-.07ZM47.98,11.08v.7c-.47.07-.79.25-.98.53-.19.26-.27.61-.25,1.05.05.42.15.88.32,1.37l5.36,15.56-.95,1.26,4.49-13.11.49.95-5.5,16.58c-.19-.02-.39-.04-.6-.04h-1.26c-.21,0-.41.01-.6.04l-7.85-21.94c-.3-.86-.67-1.45-1.09-1.75-.4-.3-.77-.47-1.12-.49v-.7c.7.02,1.53.05,2.49.07.96.02,1.87.04,2.73.04.93,0,1.76-.01,2.49-.04.75-.02,1.36-.05,1.82-.07ZM80.21,17.29c2.06,0,3.67.61,4.84,1.82,1.17,1.22,1.75,3.2,1.75,5.96h-11.53l-.07-.67h7.18c.02-1.14-.05-2.2-.21-3.15-.16-.98-.42-1.76-.77-2.35-.35-.58-.82-.88-1.4-.88-.82,0-1.52.51-2.1,1.54-.56,1.03-.9,2.73-1.02,5.12l.11.21c-.02.28-.05.57-.07.88v.95c0,1.61.22,2.92.67,3.93.47,1,1.05,1.74,1.75,2.21.7.44,1.41.67,2.14.67.49,0,.99-.07,1.51-.21.54-.16,1.07-.44,1.61-.84.54-.42,1.04-1,1.51-1.75l.63.21c-.28.89-.72,1.75-1.33,2.59-.61.84-1.38,1.53-2.31,2.07-.93.54-2.06.81-3.36.81-1.59,0-2.99-.34-4.21-1.02-1.21-.68-2.17-1.71-2.87-3.08-.68-1.38-1.02-3.13-1.02-5.26s.36-3.98,1.09-5.43c.75-1.45,1.76-2.52,3.05-3.22,1.31-.72,2.79-1.09,4.45-1.09ZM100.85,17.29c1.82,0,3.33.75,4.52,2.24,1.22,1.47,1.82,3.75,1.82,6.83,0,2.43-.37,4.38-1.12,5.85-.72,1.47-1.69,2.53-2.91,3.19-1.21.65-2.55.98-4,.98-.96,0-1.85-.16-2.66-.49-.82-.33-1.52-.86-2.1-1.61l.49-.18c.42.51.91.9,1.47,1.16.58.26,1.16.39,1.72.39,1.29,0,2.24-.72,2.87-2.17.63-1.45.95-3.66.95-6.62,0-2.01-.13-3.6-.39-4.77-.23-1.19-.58-2.03-1.05-2.52-.47-.51-1.03-.77-1.68-.77-.82,0-1.57.34-2.24,1.02-.68.65-1.06,1.58-1.16,2.77l-.18-1.23c.42-1.33,1.13-2.34,2.14-3.01,1-.7,2.17-1.05,3.5-1.05ZM95.48,8.49v26.7c-.58-.09-1.18-.09-1.79,0-.61.09-1.17.26-1.68.49-.51.21-.95.47-1.3.77l-.53-.32c.09-.33.15-.65.18-.98.05-.33.07-.65.07-.98V12.7c0-1.05-.16-1.82-.49-2.31-.3-.51-.89-.77-1.75-.77v-.74c.75.07,1.47.11,2.17.11.96,0,1.87-.04,2.73-.11.86-.09,1.66-.22,2.38-.39ZM123.27,24.96v2.91h-12.65v-2.91h12.65ZM139.3,10.59c1.54,0,2.8.23,3.79.7,1,.44,1.89.97,2.66,1.58.47.35.82.4,1.05.14.26-.28.43-.92.53-1.93h.81c-.05.91-.08,2.02-.1,3.33-.02,1.29-.04,3-.04,5.15h-.81c-.12-1.07-.27-1.99-.46-2.73-.19-.77-.44-1.45-.77-2.03-.33-.58-.79-1.11-1.4-1.58-.58-.58-1.26-1.02-2.03-1.3-.77-.28-1.58-.42-2.42-.42-1.26,0-2.34.34-3.22,1.02-.89.65-1.61,1.55-2.17,2.7-.54,1.14-.93,2.44-1.19,3.89-.26,1.43-.39,2.91-.39,4.45s.13,3.07.39,4.52c.28,1.43.7,2.7,1.26,3.82.58,1.12,1.33,2.01,2.24,2.66.91.65,1.99.98,3.22.98.77,0,1.54-.14,2.31-.42.79-.3,1.47-.74,2.03-1.3.91-.7,1.53-1.57,1.86-2.59.33-1.05.57-2.44.74-4.17h.81c0,2.22.01,4.02.04,5.4.02,1.36.06,2.5.1,3.43h-.81c-.09-1-.26-1.64-.49-1.89-.21-.26-.57-.22-1.09.11-.86.61-1.79,1.14-2.77,1.61-.96.44-2.2.67-3.71.67-2.48,0-4.65-.5-6.52-1.51-1.85-1-3.28-2.45-4.31-4.35-1.03-1.89-1.54-4.17-1.54-6.83s.53-4.91,1.58-6.87c1.07-1.96,2.54-3.49,4.38-4.59,1.87-1.1,4.02-1.65,6.45-1.65ZM155.5,8.74c.98,0,1.75.25,2.31.74.58.47.88,1.12.88,1.96s-.29,1.51-.88,2c-.56.47-1.33.7-2.31.7s-1.76-.23-2.35-.7c-.56-.49-.84-1.16-.84-2s.28-1.5.84-1.96c.58-.49,1.37-.74,2.35-.74ZM158.23,17.39v15.24c0,.98.16,1.65.49,2,.35.35.93.53,1.75.53v.74c-.42-.02-1.07-.05-1.96-.07-.89-.05-1.79-.07-2.7-.07s-1.83.02-2.77.07c-.94.02-1.64.05-2.1.07v-.74c.82,0,1.39-.18,1.72-.53.35-.35.53-1.02.53-2v-11.04c0-1.05-.16-1.82-.49-2.31-.3-.51-.89-.77-1.75-.77v-.74c.75.07,1.47.11,2.17.11.98,0,1.89-.03,2.73-.11.87-.09,1.66-.22,2.38-.39ZM169.11,12.03v5.75h4.13v.7h-4.13v14.16c0,.7.13,1.2.38,1.51.26.28.64.42,1.16.42.42,0,.84-.15,1.26-.46.42-.33.8-.88,1.12-1.65l.6.32c-.37,1.05-.95,1.92-1.72,2.59-.75.68-1.77,1.02-3.08,1.02-.77,0-1.45-.11-2.03-.32-.58-.19-1.07-.48-1.47-.88-.51-.51-.85-1.14-1.02-1.89-.16-.77-.24-1.76-.24-2.98v-11.85h-2.94v-.7h2.94v-4.63c.98,0,1.88-.08,2.7-.25.84-.19,1.62-.48,2.35-.88ZM183.22,17.29c2.06,0,3.67.61,4.84,1.82,1.17,1.22,1.75,3.2,1.75,5.96h-11.53l-.07-.67h7.18c.02-1.14-.05-2.2-.21-3.15-.16-.98-.42-1.76-.77-2.35-.35-.58-.82-.88-1.4-.88-.82,0-1.52.51-2.1,1.54-.56,1.03-.9,2.73-1.02,5.12l.1.21c-.02.28-.05.57-.07.88v.95c0,1.61.22,2.92.67,3.93.47,1,1.05,1.74,1.75,2.21.7.44,1.41.67,2.14.67.49,0,.99-.07,1.51-.21.54-.16,1.07-.44,1.61-.84.54-.42,1.04-1,1.51-1.75l.63.21c-.28.89-.73,1.75-1.33,2.59-.61.84-1.38,1.53-2.31,2.07-.93.54-2.06.81-3.37.81-1.59,0-2.99-.34-4.21-1.02-1.21-.68-2.17-1.71-2.87-3.08-.68-1.38-1.02-3.13-1.02-5.26s.36-3.98,1.09-5.43c.75-1.45,1.76-2.52,3.05-3.22,1.31-.72,2.79-1.09,4.45-1.09Z"/>
  </g>
</svg>